<svg width="48" height="46" viewBox="0 0 48 46" fill="none" xmlns="http://www.w3.org/2000/svg">
<g clip-path="url(#clip0_1_13)">
<path d="M47.2994 0H0V46H47.2994V0Z" fill="#87D4F2"/>
<path d="M39.7499 7.37793H7.54211V38.7034H39.7499V7.37793Z" fill="#9EDAF0"/>
<path d="M34.6106 12.334H12.6814V33.6659H34.6106V12.334Z" fill="#B8E4F4"/>
<path d="M31.1176 15.7666H16.1818V30.2925H31.1176V15.7666Z" fill="#D1E8EF"/>
<path fill-rule="evenodd" clip-rule="evenodd" d="M25.1329 26.0054L45.3712 44.1349L26.757 24.4525C26.9782 24.0016 27.0932 23.506 27.0932 23.0036C27.0932 22.5012 26.9782 22.0056 26.757 21.5547L45.386 1.85742L25.1403 19.9721C24.6746 19.7593 24.1688 19.6492 23.6571 19.6492C23.1453 19.6492 22.6395 19.7593 22.1739 19.9721L1.92072 1.87228L20.5349 21.5473C20.3155 21.996 20.2015 22.4891 20.2015 22.9887C20.2015 23.4884 20.3155 23.9815 20.5349 24.4302L1.90588 44.1424L22.159 26.0054C22.6259 26.2183 23.133 26.3285 23.6459 26.3285C24.1589 26.3285 24.666 26.2183 25.1329 26.0054Z" fill="#EDF4F4"/>
</g>
<defs>
<clipPath id="clip0_1_13">
<rect width="48" height="46" fill="white"/>
</clipPath>
</defs>
</svg>
